<?xml version="1.0" encoding="utf-8"?>
<!-- Generator: Adobe Illustrator 15.1.0, SVG Export Plug-In . SVG Version: 6.00 Build 0)  -->
<!DOCTYPE svg PUBLIC "-//W3C//DTD SVG 1.1//EN" "http://www.w3.org/Graphics/SVG/1.1/DTD/svg11.dtd">
<svg version="1.1" id="Layer_1" xmlns="http://www.w3.org/2000/svg" xmlns:xlink="http://www.w3.org/1999/xlink" x="0px" y="0px"
	 width="147px" height="129.332px" viewBox="0 0 147 129.332" enable-background="new 0 0 147 129.332" xml:space="preserve">
<linearGradient id="SVGID_1_" gradientUnits="userSpaceOnUse" x1="73.5" y1="10.6367" x2="73.5" y2="120.9867">
	<stop  offset="0" style="stop-color:#F55A6A"/>
	<stop  offset="1" style="stop-color:#FE2E6D"/>
</linearGradient>
<path fill="url(#SVGID_1_)" d="M38.887,57.744h2.92C47.151,69.966,59.309,78.512,73.5,78.512c14.192,0,26.349-8.545,31.693-20.768
	h2.92c1.904,0,3.462-1.558,3.462-3.461V33.515c0-1.904-1.558-3.461-3.462-3.461h-2.92C99.849,17.83,87.692,9.285,73.5,9.285
	c-14.191,0-26.349,8.545-31.693,20.768h-2.92c-1.904,0-3.461,1.558-3.461,3.461v20.768C35.425,56.186,36.983,57.744,38.887,57.744z
	 M47.54,38.707c0-4.781,4.651-8.653,10.384-8.653h31.152c5.733,0,10.384,3.872,10.384,8.653v5.192
	c0,11.465-9.302,20.768-20.768,20.768H68.308c-11.466,0-20.768-9.303-20.768-20.768V38.707z M63.116,54.282l2.596-7.788l7.788-2.596
	l-7.788-2.596l-2.596-7.788l-2.596,7.788l-7.788,2.596l7.788,2.596L63.116,54.282z M95.912,78.814
	c-6.468,4.175-14.148,6.62-22.412,6.62c-8.264,0-15.944-2.445-22.412-6.62c-14.603,1.536-26.046,13.759-26.046,28.772v2.076
	c0,5.733,4.651,10.385,10.384,10.385h17.307v-13.846c0-3.829,3.094-6.923,6.923-6.923h27.69c3.829,0,6.923,3.094,6.923,6.923v13.846
	h17.307c5.732,0,10.384-4.651,10.384-10.385v-2.076C121.958,92.573,110.514,80.351,95.912,78.814z M83.884,106.202
	c-1.904,0-3.461,1.558-3.461,3.461c0,1.904,1.557,3.462,3.461,3.462c1.903,0,3.461-1.558,3.461-3.462
	C87.345,107.76,85.788,106.202,83.884,106.202z M63.116,106.202c-1.904,0-3.461,1.558-3.461,3.461v10.385h6.922v-10.385
	C66.577,107.76,65.02,106.202,63.116,106.202z"/>
</svg>
