<?xml version="1.0" encoding="utf-8"?>
<!-- Generator: Adobe Illustrator 15.1.0, SVG Export Plug-In . SVG Version: 6.00 Build 0)  -->
<!DOCTYPE svg PUBLIC "-//W3C//DTD SVG 1.1//EN" "http://www.w3.org/Graphics/SVG/1.1/DTD/svg11.dtd">
<svg version="1.1" id="Layer_1" xmlns="http://www.w3.org/2000/svg" xmlns:xlink="http://www.w3.org/1999/xlink" x="0px" y="0px"
	 width="841.889px" height="595.281px" viewBox="0 0 841.889 595.281" enable-background="new 0 0 841.889 595.281"
	 xml:space="preserve">
<path fill="#FFFFFF" d="M234.92,111.615c0,30.822-24.986,55.808-55.808,55.808c-30.822,0-55.808-24.985-55.808-55.808
	s24.985-55.808,55.808-55.808C209.934,55.807,234.92,80.793,234.92,111.615z M179.113,241.833
	c-30.822,0-55.808,24.985-55.808,55.808s24.985,55.808,55.808,55.808c30.821,0,55.808-24.985,55.808-55.808
	S209.934,241.833,179.113,241.833z M179.113,427.858c-30.822,0-55.808,24.985-55.808,55.808c0,30.821,24.985,55.808,55.808,55.808
	c30.821,0,55.808-24.986,55.808-55.808C234.92,452.844,209.934,427.858,179.113,427.858z M290.727,153.47h409.256
	c10.273,0,18.602-8.328,18.602-18.603V88.362c0-10.274-8.328-18.603-18.602-18.603H290.727c-10.274,0-18.603,8.328-18.603,18.603
	v46.506C272.124,145.142,280.452,153.47,290.727,153.47z M290.727,339.496h409.256c10.273,0,18.602-8.328,18.602-18.603v-46.506
	c0-10.274-8.328-18.603-18.602-18.603H290.727c-10.274,0-18.603,8.328-18.603,18.603v46.506
	C272.124,331.168,280.452,339.496,290.727,339.496z M290.727,525.521h409.256c10.273,0,18.602-8.328,18.602-18.603v-46.507
	c0-10.273-8.328-18.602-18.602-18.602H290.727c-10.274,0-18.603,8.328-18.603,18.602v46.507
	C272.124,517.193,280.452,525.521,290.727,525.521z"/>
</svg>
