<?xml version="1.0" encoding="utf-8"?>
<!-- Generator: Adobe Illustrator 15.1.0, SVG Export Plug-In . SVG Version: 6.00 Build 0)  -->
<!DOCTYPE svg PUBLIC "-//W3C//DTD SVG 1.1//EN" "http://www.w3.org/Graphics/SVG/1.1/DTD/svg11.dtd">
<svg version="1.1" id="Layer_1" xmlns="http://www.w3.org/2000/svg" xmlns:xlink="http://www.w3.org/1999/xlink" x="0px" y="0px"
	 width="147px" height="129.332px" viewBox="0 0 147 129.332" enable-background="new 0 0 147 129.332" xml:space="preserve">
<linearGradient id="SVGID_1_" gradientUnits="userSpaceOnUse" x1="73.499" y1="10.1284" x2="73.499" y2="119.5354">
	<stop  offset="0" style="stop-color:#F55A6A"/>
	<stop  offset="1" style="stop-color:#FE2E6D"/>
</linearGradient>
<path fill="url(#SVGID_1_)" d="M70.76,63.148c1.507,1.593,3.964,1.593,5.496,0l23.467-24.61c6.81-7.155,6.422-19.007-1.207-25.601
	c-6.638-5.754-16.529-4.719-22.605,1.66l-2.414,2.521l-2.392-2.5c-6.077-6.4-15.968-7.435-22.605-1.681
	c-7.607,6.594-8.017,18.446-1.207,25.601L70.76,63.148z M133.252,79.869c-2.542-2.305-6.507-2.154-9.18,0l-19.912,15.927
	c-2.434,1.96-5.473,3.016-8.619,3.016H70.049c-1.897,0-3.449-1.552-3.449-3.447c0-1.896,1.551-3.447,3.449-3.447h16.874
	c3.426,0,6.615-2.351,7.176-5.733c0.711-4.311-2.608-8.06-6.811-8.06H52.809c-5.818,0-11.443,2.004-15.968,5.668l-10.021,8.125
	H14.881c-1.896,0-3.448,1.551-3.448,3.447v20.688c0,1.896,1.552,3.447,3.448,3.447h76.89c3.124,0,6.162-1.056,8.619-3.016
	l32.583-26.076C136.25,87.8,136.507,82.801,133.252,79.869z"/>
</svg>
