<?xml version="1.0" encoding="utf-8"?>
<!-- Generator: Adobe Illustrator 15.1.0, SVG Export Plug-In . SVG Version: 6.00 Build 0)  -->
<!DOCTYPE svg PUBLIC "-//W3C//DTD SVG 1.1//EN" "http://www.w3.org/Graphics/SVG/1.1/DTD/svg11.dtd">
<svg version="1.1" id="Layer_1" xmlns="http://www.w3.org/2000/svg" xmlns:xlink="http://www.w3.org/1999/xlink" x="0px" y="0px"
	 width="841.889px" height="595.281px" viewBox="0 0 841.889 595.281" enable-background="new 0 0 841.889 595.281"
	 xml:space="preserve">
<linearGradient id="SVGID_1_" gradientUnits="userSpaceOnUse" x1="417.9353" y1="4.1594" x2="417.9353" y2="610.0664">
	<stop  offset="0" style="stop-color:#F55A6A"/>
	<stop  offset="1" style="stop-color:#FE2E6D"/>
</linearGradient>
<path fill="url(#SVGID_1_)" d="M693.521,166.898l-52.522,52.522c-5.354,5.354-14.014,5.354-19.368,0L495.167,92.957
	c-5.355-5.355-5.355-14.014,0-19.369l52.521-52.522c21.305-21.304,55.94-21.304,77.359,0l68.473,68.473
	C714.94,110.843,714.94,145.478,693.521,166.898z M450.051,118.704L150.868,417.887l-24.153,138.426
	c-3.304,18.685,12.988,34.862,31.673,31.672l138.426-24.267l299.182-299.183c5.354-5.355,5.354-14.013,0-19.369L469.532,118.704
	C464.064,113.35,455.405,113.35,450.051,118.704L450.051,118.704z M267.647,392.253c-6.266-6.266-6.266-16.292,0-22.559
	L443.1,194.24c6.267-6.266,16.292-6.266,22.559,0s6.267,16.292,0,22.558L290.205,392.253
	C283.939,398.519,273.913,398.519,267.647,392.253L267.647,392.253z M226.518,488.068h54.687v41.357L207.72,542.3l-35.433-35.433
	l12.875-73.485h41.356V488.068z"/>
</svg>
