<?xml version="1.0" encoding="utf-8"?>
<!-- Generator: Adobe Illustrator 15.1.0, SVG Export Plug-In . SVG Version: 6.00 Build 0)  -->
<!DOCTYPE svg PUBLIC "-//W3C//DTD SVG 1.1//EN" "http://www.w3.org/Graphics/SVG/1.1/DTD/svg11.dtd">
<svg version="1.1" id="Layer_1" xmlns="http://www.w3.org/2000/svg" xmlns:xlink="http://www.w3.org/1999/xlink" x="0px" y="0px"
	 width="147px" height="129.332px" viewBox="0 0 147 129.332" enable-background="new 0 0 147 129.332" xml:space="preserve">
<linearGradient id="SVGID_1_" gradientUnits="userSpaceOnUse" x1="73.2285" y1="6.1094" x2="73.2285" y2="126.3311">
	<stop  offset="0" style="stop-color:#F55A6A"/>
	<stop  offset="1" style="stop-color:#FE2E6D"/>
</linearGradient>
<path fill="url(#SVGID_1_)" d="M140.854,59.91c0-5.549-3.042-10.341-7.515-12.944V11.072c0-2.055-1.638-7.517-7.513-7.517
	c-1.673,0-3.332,0.559-4.691,1.648l-19.967,15.974c-10.027,8.017-22.62,12.434-35.454,12.434H20.632
	c-8.301,0-15.028,6.727-15.028,15.028v22.542c0,8.3,6.727,15.027,15.028,15.027h7.914c-0.327,2.461-0.513,4.966-0.513,7.514
	c0,9.339,2.175,18.163,6.002,26.051c1.219,2.509,3.879,4.004,6.669,4.004h17.441c6.116,0,9.789-7.005,6.081-11.871
	c-3.851-5.053-6.14-11.355-6.14-18.184c0-2.609,0.38-5.116,1.036-7.514h6.593c12.833,0,25.426,4.417,35.452,12.434l19.965,15.975
	c1.333,1.064,2.987,1.646,4.692,1.648c5.852,0,7.514-5.351,7.514-7.516V72.853C137.812,70.251,140.854,65.458,140.854,59.91z
	 M118.312,93.116l-7.761-6.209c-12.68-10.144-28.607-15.727-44.836-15.727V48.639c16.229,0,32.157-5.584,44.836-15.728l7.761-6.208
	V93.116z"/>
</svg>
