<?xml version="1.0" encoding="utf-8"?>
<!-- Generator: Adobe Illustrator 15.1.0, SVG Export Plug-In . SVG Version: 6.00 Build 0)  -->
<!DOCTYPE svg PUBLIC "-//W3C//DTD SVG 1.1//EN" "http://www.w3.org/Graphics/SVG/1.1/DTD/svg11.dtd">
<svg version="1.1" id="Layer_1" xmlns="http://www.w3.org/2000/svg" xmlns:xlink="http://www.w3.org/1999/xlink" x="0px" y="0px"
	 width="147px" height="129.332px" viewBox="0 0 147 129.332" enable-background="new 0 0 147 129.332" xml:space="preserve">
<linearGradient id="SVGID_1_" gradientUnits="userSpaceOnUse" x1="73.5" y1="7.3818" x2="73.5" y2="121.9533">
	<stop  offset="0" style="stop-color:#F55A6A"/>
	<stop  offset="1" style="stop-color:#FE2E6D"/>
</linearGradient>
<path fill="url(#SVGID_1_)" d="M59.083,53.854c0-3.98-3.228-7.208-7.208-7.208h-3.604c-7.963,0-14.417,6.454-14.417,14.417v10.812
	c0,7.962,6.454,14.416,14.417,14.416h3.604c3.98,0,7.208-3.227,7.208-7.207V53.854z M98.729,86.29
	c7.963,0,14.417-6.453,14.417-14.416V61.062c0-7.963-6.454-14.417-14.417-14.417h-3.604c-3.979,0-7.208,3.228-7.208,7.208v25.229
	c0,3.98,3.229,7.207,7.208,7.207H98.729z M73.5,7C41.329,7,16.865,33.767,15.833,64.666v3.604c0,1.991,1.613,3.604,3.604,3.604
	h3.604c1.991,0,3.604-1.613,3.604-3.604v-3.604c0-25.835,21.019-46.854,46.854-46.854c25.835,0,46.854,21.019,46.854,46.854h-0.027
	c0.019,0.547,0.027,37.329,0.027,37.329c0,5.262-4.264,9.525-9.524,9.525H87.917c0-5.973-4.841-10.812-10.812-10.812h-7.208
	c-5.972,0-10.812,4.84-10.812,10.812c0,5.971,4.841,10.812,10.812,10.812h40.934c11.231,0,20.337-9.105,20.337-20.338V64.666
	C130.135,33.767,105.671,7,73.5,7z"/>
</svg>
