<?xml version="1.0" encoding="utf-8"?>
<!-- Generator: Adobe Illustrator 15.1.0, SVG Export Plug-In . SVG Version: 6.00 Build 0)  -->
<!DOCTYPE svg PUBLIC "-//W3C//DTD SVG 1.1//EN" "http://www.w3.org/Graphics/SVG/1.1/DTD/svg11.dtd">
<svg version="1.1" id="Layer_1" xmlns="http://www.w3.org/2000/svg" xmlns:xlink="http://www.w3.org/1999/xlink" x="0px" y="0px"
	 width="147px" height="129.332px" viewBox="0 0 147 129.332" enable-background="new 0 0 147 129.332" xml:space="preserve">
<linearGradient id="SVGID_1_" gradientUnits="userSpaceOnUse" x1="73.4961" y1="14.9961" x2="73.4961" y2="119.2783">
	<stop  offset="0" style="stop-color:#F55A6A"/>
	<stop  offset="1" style="stop-color:#FE2E6D"/>
</linearGradient>
<path fill="url(#SVGID_1_)" d="M60.625,33.696h77.25c2.361,0,4.292-1.931,4.292-4.292V18.676c0-2.36-1.931-4.292-4.292-4.292h-77.25
	c-2.36,0-4.292,1.932-4.292,4.292v10.729C56.333,31.765,58.264,33.696,60.625,33.696z M60.625,76.613h77.25
	c2.361,0,4.292-1.931,4.292-4.292V61.592c0-2.36-1.931-4.292-4.292-4.292h-77.25c-2.36,0-4.292,1.931-4.292,4.292v10.729
	C56.333,74.683,58.264,76.613,60.625,76.613z M60.625,119.53h77.25c2.361,0,4.292-1.932,4.292-4.292V104.51
	c0-2.361-1.931-4.293-4.292-4.293h-77.25c-2.36,0-4.292,1.932-4.292,4.293v10.729C56.333,117.599,58.264,119.53,60.625,119.53z
	 M22,96.998c-7.108,0-13.036,5.767-13.036,12.876c0,7.108,5.928,12.875,13.036,12.875s12.875-5.767,12.875-12.875
	C34.875,102.765,29.107,96.998,22,96.998z M46.811,16.798L27.444,36.164l-4.184,4.185c-1.261,1.26-3.46,1.26-4.721,0L5.772,27.635
	c-1.261-1.261-1.261-3.3,0-4.56l4.211-4.211c1.26-1.261,3.299-1.261,4.56,0l6.089,5.928L37.718,7.812
	c1.261-1.261,3.299-1.261,4.56,0l4.56,4.426C48.071,13.499,48.071,15.537,46.811,16.798z M46.811,59.607L27.444,78.974l-4.211,4.211
	c-1.26,1.262-3.459,1.262-4.72,0L5.772,70.444c-1.261-1.26-1.261-3.3,0-4.56l4.211-4.211c1.26-1.261,3.299-1.261,4.56,0l6.089,5.928
	l17.086-17.087c1.261-1.26,3.299-1.26,4.56,0l4.56,4.561C48.071,56.308,48.071,58.347,46.811,59.607z"/>
</svg>
