<?xml version="1.0" encoding="utf-8"?>
<!-- Generator: Adobe Illustrator 15.1.0, SVG Export Plug-In . SVG Version: 6.00 Build 0)  -->
<!DOCTYPE svg PUBLIC "-//W3C//DTD SVG 1.1//EN" "http://www.w3.org/Graphics/SVG/1.1/DTD/svg11.dtd">
<svg version="1.1" id="Layer_1" xmlns="http://www.w3.org/2000/svg" xmlns:xlink="http://www.w3.org/1999/xlink" x="0px" y="0px"
	 width="841.889px" height="595.281px" viewBox="0 0 841.889 595.281" enable-background="new 0 0 841.889 595.281"
	 xml:space="preserve">
<linearGradient id="SVGID_1_" gradientUnits="userSpaceOnUse" x1="426.9446" y1="43.1404" x2="426.9445" y2="555.1492">
	<stop  offset="0" style="stop-color:#F55A6A"/>
	<stop  offset="1" style="stop-color:#FE2E6D"/>
</linearGradient>
<path fill="url(#SVGID_1_)" d="M278.124,297.64c71.969,0,130.218-58.249,130.218-130.218S350.093,37.205,278.124,37.205
	c-71.968,0-130.217,58.249-130.217,130.218S206.156,297.64,278.124,297.64z M367.417,334.845h-9.65
	c-24.184,11.627-51.041,18.603-79.643,18.603c-28.601,0-55.342-6.976-79.642-18.603h-9.65c-73.944,0-133.938,59.993-133.938,133.938
	v33.484c0,30.81,24.997,55.808,55.808,55.808h334.845c30.811,0,55.808-24.998,55.808-55.808v-33.484
	C501.355,394.839,441.362,334.845,367.417,334.845z M612.97,297.64c61.62,0,111.614-49.994,111.614-111.615
	S674.59,74.41,612.97,74.41c-61.621,0-111.615,49.994-111.615,111.615S551.349,297.64,612.97,297.64z M668.778,334.845h-4.418
	c-16.161,5.581-33.253,9.301-51.39,9.301c-18.138,0-35.229-3.72-51.39-9.301h-4.418c-23.719,0-45.576,6.859-64.76,17.905
	c28.368,30.577,46.157,71.154,46.157,116.033v44.646c0,2.558-0.581,4.999-0.698,7.441h205.326c30.81,0,55.807-24.997,55.807-55.808
	C798.994,393.094,740.745,334.845,668.778,334.845z"/>
</svg>
