<?xml version="1.0" encoding="utf-8"?>
<!-- Generator: Adobe Illustrator 15.1.0, SVG Export Plug-In . SVG Version: 6.00 Build 0)  -->
<!DOCTYPE svg PUBLIC "-//W3C//DTD SVG 1.1//EN" "http://www.w3.org/Graphics/SVG/1.1/DTD/svg11.dtd">
<svg version="1.1" id="Layer_1" xmlns="http://www.w3.org/2000/svg" xmlns:xlink="http://www.w3.org/1999/xlink" x="0px" y="0px"
	 width="147px" height="129.332px" viewBox="0 0 147 129.332" enable-background="new 0 0 147 129.332" xml:space="preserve">
<linearGradient id="SVGID_1_" gradientUnits="userSpaceOnUse" x1="73.1616" y1="10.585" x2="73.1616" y2="124.0319">
	<stop  offset="0" style="stop-color:#F55A6A"/>
	<stop  offset="1" style="stop-color:#FE2E6D"/>
</linearGradient>
<path fill="url(#SVGID_1_)" d="M113.954,28.748c6.142,0,11.124-4.982,11.124-11.124s-4.982-11.125-11.124-11.125
	s-11.124,4.983-11.124,11.125S107.812,28.748,113.954,28.748z M130.872,111.278c-2.178-2.18-5.7-2.18-7.855,0
	c-2.805,2.804-7.068,3.568-10.453,2.015L81.09,97.023L92.493,79.92c2.943-4.403,2.364-10.312-1.391-14.044L81.74,56.49
	L56.941,44.183c-0.672,4.612,0.788,9.271,4.103,12.607L78.449,74.22L67.811,90.164L21.945,66.455
	c-2.712-1.391-6.072-0.348-7.486,2.387s-0.348,6.095,2.387,7.486l90.827,46.932c2.758,1.274,5.679,1.877,8.598,1.877
	c5.377,0,10.661-2.086,14.601-6.025C133.028,116.956,133.028,113.433,130.872,111.278z M41.645,27.728l-2.665,5.214
	c3.337,1.692,7.231,1.136,9.919-1.112l10.939,5.423c-0.023,0.023-0.023,0.046-0.046,0.07l26.536,13.164l7.51-3.013L95.32,51.9
	c0.928,2.805,2.921,5.099,5.562,6.42l13.466,6.721c3.686,1.831,8.111,0.348,9.942-3.314c1.83-3.662,0.348-8.111-3.314-9.943
	l-12.074-6.049l-3.964-11.866c-1.877-5.608-9.479-13.118-19.583-9.084l-18.819,7.532l-14.485-7.184
	c0.069-3.361-1.668-6.628-4.843-8.251l-2.573,5.029h-0.046l-7.973-1.622c-0.417-0.093-0.857,0.046-1.159,0.394
	c-0.44,0.51-0.394,1.275,0.116,1.715L41.645,27.728z"/>
</svg>
