<?xml version="1.0" encoding="utf-8"?>
<!-- Generator: Adobe Illustrator 15.1.0, SVG Export Plug-In . SVG Version: 6.00 Build 0)  -->
<!DOCTYPE svg PUBLIC "-//W3C//DTD SVG 1.1//EN" "http://www.w3.org/Graphics/SVG/1.1/DTD/svg11.dtd">
<svg version="1.1" id="Layer_1" xmlns="http://www.w3.org/2000/svg" xmlns:xlink="http://www.w3.org/1999/xlink" x="0px" y="0px"
	 width="147px" height="129.332px" viewBox="0 0 147 129.332" enable-background="new 0 0 147 129.332" xml:space="preserve">
<linearGradient id="SVGID_1_" gradientUnits="userSpaceOnUse" x1="73.5" y1="14.3354" x2="73.5" y2="115.8537">
	<stop  offset="0" style="stop-color:#F55A6A"/>
	<stop  offset="1" style="stop-color:#FE2E6D"/>
</linearGradient>
<path fill="url(#SVGID_1_)" d="M57.331,51.693c0.387-6.272,3.523-12.463,8.96-16.251c-1.059-2.199-3.238-3.727-5.824-3.727h-5.987
	l6.252-4.48c1.466-1.039,1.812-3.075,0.753-4.542l-1.894-2.647c-1.039-1.466-3.075-1.812-4.541-0.753l-6.517,4.664l2.342-6.231
	c0.631-1.69-0.224-3.564-1.914-4.195l-3.055-1.141c-1.69-0.631-3.564,0.224-4.195,1.915l-4.053,10.793l-4.052-10.813
	c-0.631-1.69-2.505-2.545-4.195-1.914l-3.055,1.14c-1.69,0.631-2.545,2.525-1.894,4.195l2.342,6.231l-6.537-4.643
	c-1.466-1.039-3.502-0.713-4.542,0.753l-1.894,2.647c-1.039,1.466-0.713,3.503,0.753,4.542l6.252,4.48H14.85
	c-3.604,0-6.517,2.912-6.517,6.517v71.683c0,3.604,2.912,6.516,6.517,6.516h34.396c-1.12-1.934-1.812-4.133-1.812-6.516V64.299
	C47.434,58.209,51.669,53.098,57.331,51.693z M53.95,109.915c0,3.604,2.912,6.516,6.517,6.516H93.05V90.364h-39.1V109.915z
	 M99.567,116.431h32.583c3.604,0,6.517-2.912,6.517-6.516V90.364h-39.1V116.431z M132.15,57.782h-4.154
	c0.529-1.547,0.896-3.156,0.896-4.847c0-7.229-5.498-14.703-14.683-14.703c-9.795,0-15.456,9.714-17.9,15.334
	c-2.464-5.621-8.125-15.334-17.9-15.334c-9.184,0-14.683,7.474-14.683,14.703c0,1.69,0.346,3.299,0.896,4.847h-4.154
	c-3.604,0-6.517,2.912-6.517,6.517v19.55h39.1V57.782h3.115l0.143-0.041l0.143,0.041h3.116v26.067h39.1v-19.55
	C138.667,60.694,135.754,57.782,132.15,57.782z M76.758,57.782c-0.55-0.285-1.038-0.611-1.466-0.977
	c-1.486-1.304-1.792-2.811-1.792-3.87c0-1.975,1.303-4.928,4.908-4.928c3.809,0,7.25,5.58,9.062,9.775H76.758z M117.325,56.805
	c-0.428,0.366-0.917,0.692-1.467,0.977h-10.711c1.792-4.134,5.254-9.775,9.062-9.775c3.604,0,4.908,2.953,4.908,4.928
	C119.117,53.994,118.811,55.501,117.325,56.805z"/>
</svg>
