<?xml version="1.0" encoding="utf-8"?>
<!-- Generator: Adobe Illustrator 15.1.0, SVG Export Plug-In . SVG Version: 6.00 Build 0)  -->
<!DOCTYPE svg PUBLIC "-//W3C//DTD SVG 1.1//EN" "http://www.w3.org/Graphics/SVG/1.1/DTD/svg11.dtd">
<svg version="1.1" id="Layer_1" xmlns="http://www.w3.org/2000/svg" xmlns:xlink="http://www.w3.org/1999/xlink" x="0px" y="0px"
	 width="841.889px" height="595.281px" viewBox="0 0 841.889 595.281" enable-background="new 0 0 841.889 595.281"
	 xml:space="preserve">
<linearGradient id="SVGID_1_" gradientUnits="userSpaceOnUse" x1="424.9446" y1="5.8386" x2="424.9445" y2="583.7816">
	<stop  offset="0" style="stop-color:#F55A6A"/>
	<stop  offset="1" style="stop-color:#FE2E6D"/>
</linearGradient>
<path fill="url(#SVGID_1_)" d="M424.945,5C265.66,5,136.606,134.054,136.606,293.339S265.66,581.677,424.945,581.677
	s288.339-129.055,288.339-288.339S584.229,5,424.945,5z M517.957,172.422c27.671,0,61.271,34.066,65.108,83.014
	c0.814,9.999-12.557,13.836-17.323,5.232l-11.045-19.766c-8.953-15.928-22.323-25.113-36.624-25.113s-27.671,9.186-36.624,25.113
	l-11.045,19.766c-4.767,8.487-18.138,4.65-17.323-5.232C456.685,206.488,490.286,172.422,517.957,172.422z M331.932,172.422
	c27.672,0,61.272,34.066,65.109,83.014c0.813,9.999-12.557,13.836-17.324,5.232l-11.045-19.766
	c-8.952-15.928-22.323-25.113-36.624-25.113c-14.3,0-27.671,9.186-36.623,25.113l-11.046,19.766
	c-4.883,8.604-18.137,4.65-17.323-5.232C270.66,206.488,304.261,172.422,331.932,172.422z M424.945,497.967
	c-70.457,0-156.377-44.53-167.189-108.477c-2.325-13.835,10.929-25.113,24.066-20.812c35.112,11.278,87.315,17.673,143.123,17.673
	s108.011-6.395,143.123-17.673c13.254-4.302,26.276,7.093,24.067,20.812C581.322,453.436,495.402,497.967,424.945,497.967
	L424.945,497.967z"/>
</svg>
