<?xml version="1.0" encoding="utf-8"?>
<!-- Generator: Adobe Illustrator 15.1.0, SVG Export Plug-In . SVG Version: 6.00 Build 0)  -->
<!DOCTYPE svg PUBLIC "-//W3C//DTD SVG 1.1//EN" "http://www.w3.org/Graphics/SVG/1.1/DTD/svg11.dtd">
<svg version="1.1" id="Layer_1" xmlns="http://www.w3.org/2000/svg" xmlns:xlink="http://www.w3.org/1999/xlink" x="0px" y="0px"
	 width="147px" height="129.332px" viewBox="0 0 147 129.332" enable-background="new 0 0 147 129.332" xml:space="preserve">
<linearGradient id="SVGID_1_" gradientUnits="userSpaceOnUse" x1="73.5" y1="16.2471" x2="73.5" y2="116.9728">
	<stop  offset="0" style="stop-color:#F55A6A"/>
	<stop  offset="1" style="stop-color:#FE2E6D"/>
</linearGradient>
<path fill="url(#SVGID_1_)" d="M137.038,44.75h-15.591l-4.333-10.833c-4.453-11.138-15.081-18.333-27.078-18.333H56.963
	c-11.995,0-22.625,7.195-27.081,18.333L25.549,44.75H9.96c-2.034,0-3.526,1.911-3.031,3.883l1.562,6.25
	c0.346,1.391,1.596,2.367,3.031,2.367h5.227C13.252,60.304,11,64.744,11,69.75v12.5c0,4.197,1.604,7.986,4.167,10.92v14.08
	c0,4.602,3.732,8.334,8.333,8.334h8.333c4.602,0,8.333-3.732,8.333-8.334v-8.334h66.667v8.334c0,4.602,3.731,8.334,8.333,8.334
	h8.333c4.602,0,8.334-3.732,8.334-8.334v-14.08c2.562-2.93,4.166-6.719,4.166-10.92v-12.5c0-5.005-2.252-9.445-5.747-12.5h5.227
	c1.435,0,2.685-0.977,3.031-2.367l1.562-6.25C140.564,46.661,139.072,44.75,137.038,44.75z M45.356,40.106
	c1.898-4.745,6.495-7.856,11.607-7.856h33.073c5.112,0,9.708,3.112,11.606,7.856l5.19,12.977H40.166L45.356,40.106z M31.833,82.196
	c-5,0-8.333-3.322-8.333-8.307c0-4.984,3.333-8.307,8.333-8.307s12.5,7.477,12.5,12.461S36.833,82.196,31.833,82.196z
	 M115.166,82.196c-5,0-12.5,0.832-12.5-4.152s7.5-12.461,12.5-12.461s8.333,3.323,8.333,8.307
	C123.499,78.874,120.166,82.196,115.166,82.196z"/>
</svg>
