<?xml version="1.0" encoding="utf-8"?>
<!-- Generator: Adobe Illustrator 15.1.0, SVG Export Plug-In . SVG Version: 6.00 Build 0)  -->
<!DOCTYPE svg PUBLIC "-//W3C//DTD SVG 1.1//EN" "http://www.w3.org/Graphics/SVG/1.1/DTD/svg11.dtd">
<svg version="1.1" id="Layer_1" xmlns="http://www.w3.org/2000/svg" xmlns:xlink="http://www.w3.org/1999/xlink" x="0px" y="0px"
	 width="147px" height="129.332px" viewBox="0 0 147 129.332" enable-background="new 0 0 147 129.332" xml:space="preserve">
<linearGradient id="SVGID_1_" gradientUnits="userSpaceOnUse" x1="73.5" y1="9.3442" x2="73.5" y2="119.2964">
	<stop  offset="0" style="stop-color:#F55A6A"/>
	<stop  offset="1" style="stop-color:#FE2E6D"/>
</linearGradient>
<path fill="url(#SVGID_1_)" d="M29.271,39.089l22.071,8.036c7.606-17.625,18.634-31.188,30.044-37.544
	C60.663,8.524,40.583,17.57,27.667,33.746C26.222,35.562,27.093,38.296,29.271,39.089z M57.856,49.499l51.546,18.768
	c7.729-26.236,4.042-50.073-9.214-54.897c-1.6-0.583-3.271-0.865-4.99-0.865C82.658,12.508,67.473,27.456,57.856,49.499z
	 M117.048,22.576c1.345,3.523,2.341,7.479,2.853,11.929c1.241,10.783-0.307,23.394-4.096,36.092l22.181,8.075
	c2.182,0.793,4.606-0.741,4.663-3.063C143.15,54.926,133.589,35.095,117.048,22.576z M125.375,106.328H73.728L87.765,67.75
	l-13-4.733l-15.757,43.31H7.791c-1.911,0-3.458,1.548-3.458,3.46v6.919c0,1.911,1.548,3.46,3.458,3.46h117.583
	c1.911,0,3.458-1.549,3.458-3.46v-6.919C128.833,107.875,127.286,106.328,125.375,106.328z"/>
</svg>
