<?xml version="1.0" encoding="utf-8"?>
<!-- Generator: Adobe Illustrator 15.1.0, SVG Export Plug-In . SVG Version: 6.00 Build 0)  -->
<!DOCTYPE svg PUBLIC "-//W3C//DTD SVG 1.1//EN" "http://www.w3.org/Graphics/SVG/1.1/DTD/svg11.dtd">
<svg version="1.1" id="Layer_1" xmlns="http://www.w3.org/2000/svg" xmlns:xlink="http://www.w3.org/1999/xlink" x="0px" y="0px"
	 width="841.889px" height="595.281px" viewBox="0 0 841.889 595.281" enable-background="new 0 0 841.889 595.281"
	 xml:space="preserve">
<linearGradient id="SVGID_1_" gradientUnits="userSpaceOnUse" x1="410.4441" y1="8.7776" x2="410.4441" y2="585.9788">
	<stop  offset="0" style="stop-color:#F55A6A"/>
	<stop  offset="1" style="stop-color:#FE2E6D"/>
</linearGradient>
<path fill="url(#SVGID_1_)" d="M730.789,275.732c0-26.284-14.403-48.986-35.594-61.311V44.383c0-9.732-7.764-35.605-35.593-35.605
	c-7.92,0-15.785,2.648-22.225,7.809l-94.58,75.67c-47.507,37.975-107.148,58.897-167.947,58.897H161.288
	c-39.321,0-71.188,31.868-71.188,71.188v106.781c0,39.32,31.867,71.188,71.188,71.188h37.485
	c-1.546,11.657-2.425,23.514-2.425,35.594c0,44.236,10.3,86.037,28.431,123.4c5.773,11.89,18.375,18.976,31.59,18.976h82.623
	c28.976,0,46.372-33.192,28.808-56.238c-18.242-23.938-29.086-53.792-29.086-86.138c0-12.357,1.802-24.237,4.905-35.594h31.234
	c60.799,0,120.44,20.922,167.937,58.896l94.579,75.671c6.309,5.048,14.145,7.801,22.225,7.809c27.718,0,35.594-25.339,35.594-35.594
	V337.054C716.386,324.719,730.789,302.016,730.789,275.732z M624.008,433.035l-36.762-29.409
	c-60.065-48.052-135.513-74.503-212.396-74.503V222.342c76.883,0,152.33-26.451,212.396-74.503l36.762-29.409V433.035z"/>
</svg>
