<?xml version="1.0" encoding="utf-8"?>
<!-- Generator: Adobe Illustrator 15.1.0, SVG Export Plug-In . SVG Version: 6.00 Build 0)  -->
<!DOCTYPE svg PUBLIC "-//W3C//DTD SVG 1.1//EN" "http://www.w3.org/Graphics/SVG/1.1/DTD/svg11.dtd">
<svg version="1.1" id="Layer_1" xmlns="http://www.w3.org/2000/svg" xmlns:xlink="http://www.w3.org/1999/xlink" x="0px" y="0px"
	 width="147px" height="129.332px" viewBox="0 0 147 129.332" enable-background="new 0 0 147 129.332" xml:space="preserve">
<linearGradient id="SVGID_1_" gradientUnits="userSpaceOnUse" x1="73.5" y1="11.1162" x2="73.5" y2="118.4497">
	<stop  offset="0" style="stop-color:#F55A6A"/>
	<stop  offset="1" style="stop-color:#FE2E6D"/>
</linearGradient>
<path fill="url(#SVGID_1_)" d="M126.642,49.698l-10.607-31.823c-1.362-4.109-5.198-6.876-9.538-6.876H76.854v40.25h50.04
	C126.81,50.725,126.81,50.201,126.642,49.698z M70.146,10.999H40.503c-4.339,0-8.176,2.767-9.538,6.876L20.357,49.698
	c-0.167,0.503-0.167,1.027-0.251,1.551h50.04V10.999z M19.833,57.957v50.312c0,5.556,4.507,10.062,10.062,10.062h87.208
	c5.556,0,10.062-4.507,10.062-10.062V57.957H19.833z"/>
</svg>
