<?xml version="1.0" encoding="utf-8"?>
<!-- Generator: Adobe Illustrator 15.1.0, SVG Export Plug-In . SVG Version: 6.00 Build 0)  -->
<!DOCTYPE svg PUBLIC "-//W3C//DTD SVG 1.1//EN" "http://www.w3.org/Graphics/SVG/1.1/DTD/svg11.dtd">
<svg version="1.1" id="Layer_1" xmlns="http://www.w3.org/2000/svg" xmlns:xlink="http://www.w3.org/1999/xlink" x="0px" y="0px"
	 width="841.889px" height="595.281px" viewBox="0 0 841.889 595.281" enable-background="new 0 0 841.889 595.281"
	 xml:space="preserve">
<linearGradient id="SVGID_1_" gradientUnits="userSpaceOnUse" x1="420.9441" y1="33.3591" x2="420.9441" y2="562.7069">
	<stop  offset="0" style="stop-color:#F55A6A"/>
	<stop  offset="1" style="stop-color:#FE2E6D"/>
</linearGradient>
<path fill="url(#SVGID_1_)" d="M337.469,230.061c1.998-32.38,18.188-64.341,46.258-83.896
	c-5.467-11.354-16.716-19.239-30.068-19.239H322.75l32.276-23.129c7.57-5.362,9.356-15.876,3.89-23.445l-9.777-13.667
	c-5.362-7.569-15.875-9.357-23.445-3.89L292.052,86.87l12.09-32.171c3.259-8.726-1.157-18.398-9.882-21.658l-15.771-5.887
	c-8.726-3.259-18.398,1.157-21.657,9.882L235.91,92.758l-20.922-55.826c-3.259-8.726-12.931-13.142-21.657-9.882l-15.771,5.887
	c-8.726,3.259-13.142,13.037-9.777,21.658l12.091,32.171l-33.748-23.971c-7.569-5.362-18.083-3.68-23.445,3.89l-9.777,13.667
	c-5.362,7.569-3.68,18.083,3.889,23.445l32.276,23.129h-30.909c-18.609,0-33.643,15.034-33.643,33.643v370.07
	c0,18.607,15.034,33.643,33.643,33.643H295.73c-5.782-9.988-9.357-21.343-9.357-33.643V295.139
	C286.373,263.704,308.241,237.316,337.469,230.061z M320.016,530.638c0,18.607,15.034,33.643,33.643,33.643h168.214V429.71H320.016
	V530.638z M555.515,564.281h168.213c18.608,0,33.643-15.035,33.643-33.643V429.71H555.515V564.281z M723.728,261.496h-21.447
	c2.734-7.99,4.627-16.296,4.627-25.022c0-37.322-28.387-75.906-75.803-75.906c-50.568,0-79.795,50.148-92.411,79.165
	c-12.722-29.017-41.948-79.165-92.412-79.165c-47.416,0-75.801,38.584-75.801,75.906c0,8.726,1.788,17.032,4.626,25.022h-21.448
	c-18.609,0-33.643,15.034-33.643,33.643v100.929h201.856V261.496h16.084l0.737-0.21l0.735,0.21h16.086v134.572H757.37V295.139
	C757.37,276.53,742.336,261.496,723.728,261.496z M437.765,261.496c-2.838-1.472-5.361-3.154-7.568-5.046
	c-7.675-6.728-9.252-14.509-9.252-19.976c0-10.198,6.729-25.441,25.337-25.441c19.659,0,37.428,28.806,46.785,50.463H437.765z
	 M647.192,256.45c-2.208,1.892-4.731,3.575-7.569,5.046h-55.301c9.252-21.342,27.125-50.463,46.783-50.463
	c18.609,0,25.339,15.244,25.339,25.441C656.444,241.941,654.866,249.722,647.192,256.45z"/>
</svg>
