<?xml version="1.0" encoding="utf-8"?>
<!-- Generator: Adobe Illustrator 15.1.0, SVG Export Plug-In . SVG Version: 6.00 Build 0)  -->
<!DOCTYPE svg PUBLIC "-//W3C//DTD SVG 1.1//EN" "http://www.w3.org/Graphics/SVG/1.1/DTD/svg11.dtd">
<svg version="1.1" id="Layer_1" xmlns="http://www.w3.org/2000/svg" xmlns:xlink="http://www.w3.org/1999/xlink" x="0px" y="0px"
	 width="150px" height="132.333px" viewBox="0 0 150 132.333" enable-background="new 0 0 150 132.333" xml:space="preserve">
<linearGradient id="SVGID_1_" gradientUnits="userSpaceOnUse" x1="74.9995" y1="5.6733" x2="74.9995" y2="125.8526">
	<stop  offset="0" style="stop-color:#F55A6A"/>
	<stop  offset="1" style="stop-color:#FE2E6D"/>
</linearGradient>
<path fill="url(#SVGID_1_)" d="M14.5,117.816c0,4.779,3.862,8.643,8.643,8.643h43.214V83.244H14.5V117.816z M83.643,126.459h43.215
	c4.78,0,8.643-3.863,8.643-8.643V83.244H83.643V126.459z M135.5,40.029h-11.371c1.675-3.268,2.729-6.887,2.729-10.804
	c0-13.099-10.669-23.768-23.769-23.768c-11.235,0-18.501,5.753-27.818,18.447C65.952,11.211,58.687,5.458,47.451,5.458
	c-13.1,0-23.768,10.668-23.768,23.768c0,3.917,1.026,7.536,2.728,10.804H14.5c-4.78,0-8.643,3.862-8.643,8.643v21.607
	c0,2.377,1.945,4.321,4.321,4.321h129.643c2.377,0,4.321-1.944,4.321-4.321V48.672C144.143,43.892,140.28,40.029,135.5,40.029z
	 M47.424,40.029c-5.969,0-10.803-4.834-10.803-10.804c0-5.969,4.834-10.803,10.803-10.803c5.375,0,9.345,0.891,23.255,21.607H47.424
	z M103.089,40.029H79.835c13.882-20.662,17.744-21.607,23.254-21.607c5.97,0,10.804,4.834,10.804,10.803
	C113.893,35.195,109.059,40.029,103.089,40.029z"/>
</svg>
