<?xml version="1.0" encoding="utf-8"?>
<!-- Generator: Adobe Illustrator 15.1.0, SVG Export Plug-In . SVG Version: 6.00 Build 0)  -->
<!DOCTYPE svg PUBLIC "-//W3C//DTD SVG 1.1//EN" "http://www.w3.org/Graphics/SVG/1.1/DTD/svg11.dtd">
<svg version="1.1" id="Layer_1" xmlns="http://www.w3.org/2000/svg" xmlns:xlink="http://www.w3.org/1999/xlink" x="0px" y="0px"
	 width="147px" height="129.332px" viewBox="0 0 147 129.332" enable-background="new 0 0 147 129.332" xml:space="preserve">
<linearGradient id="SVGID_1_" gradientUnits="userSpaceOnUse" x1="73.499" y1="13.1226" x2="73.499" y2="117.1609">
	<stop  offset="0" style="stop-color:#F55A6A"/>
	<stop  offset="1" style="stop-color:#FE2E6D"/>
</linearGradient>
<path fill="url(#SVGID_1_)" d="M139.593,99.916H20.625V16.197c0-2.435-1.972-4.406-4.406-4.406H7.406
	C4.971,11.791,3,13.763,3,16.197v92.531c0,4.866,3.946,8.812,8.812,8.812h127.781c2.435,0,4.406-1.972,4.406-4.406v-8.812
	C144,101.888,142.028,99.916,139.593,99.916z M130.781,20.604H98.268c-5.888,0-8.837,7.119-4.673,11.283l8.922,8.923L82.312,61.017
	L62.106,40.812c-3.442-3.442-9.021-3.442-12.461,0L30.729,59.728c-1.721,1.721-1.721,4.511,0,6.232l6.229,6.229
	c1.721,1.722,4.511,1.722,6.232,0l12.685-12.687L76.08,79.708c3.442,3.442,9.022,3.442,12.462,0l26.438-26.438l8.923,8.922
	c4.163,4.164,11.282,1.215,11.282-4.673V25.01C135.187,22.575,133.215,20.604,130.781,20.604z"/>
</svg>
