<?xml version="1.0" encoding="utf-8"?>
<!-- Generator: Adobe Illustrator 15.1.0, SVG Export Plug-In . SVG Version: 6.00 Build 0)  -->
<!DOCTYPE svg PUBLIC "-//W3C//DTD SVG 1.1//EN" "http://www.w3.org/Graphics/SVG/1.1/DTD/svg11.dtd">
<svg version="1.1" id="Layer_1" xmlns="http://www.w3.org/2000/svg" xmlns:xlink="http://www.w3.org/1999/xlink" x="0px" y="0px"
	 width="147px" height="129.332px" viewBox="0 0 147 129.332" enable-background="new 0 0 147 129.332" xml:space="preserve">
<linearGradient id="SVGID_1_" gradientUnits="userSpaceOnUse" x1="72.165" y1="4.6636" x2="72.165" y2="123.0647">
	<stop  offset="0" style="stop-color:#F55A6A"/>
	<stop  offset="1" style="stop-color:#FE2E6D"/>
</linearGradient>
<path fill="url(#SVGID_1_)" d="M72.166,3.569c-32.955,0-59.656,26.701-59.656,59.656c0,32.956,26.701,59.657,59.656,59.657
	s59.656-26.701,59.656-59.657C131.822,30.27,105.121,3.569,72.166,3.569z M120.276,63.225c0,5.412-0.938,10.631-2.599,15.491h-4.883
	c-1.034,0-2.021-0.408-2.742-1.154l-7.698-7.841c-1.082-1.106-1.082-2.911,0.024-4.018l3.007-3.007v-2.093
	c0-0.722-0.288-1.419-0.794-1.925l-2.261-2.261c-0.505-0.505-1.203-0.794-1.925-0.794h-3.849c-1.491,0-2.718-1.227-2.718-2.718
	c0-0.722,0.288-1.42,0.794-1.925l2.261-2.261c0.505-0.506,1.203-0.794,1.925-0.794h7.697c1.491,0,2.718-1.227,2.718-2.718v-2.261
	c0-1.491-1.227-2.718-2.718-2.718h-8.828c-2.117,0-3.849,1.732-3.849,3.849v1.083c0,1.66-1.059,3.127-2.622,3.656l-7.602,2.526
	c-0.794,0.265-1.323,0.986-1.323,1.828V53.7c0,1.058-0.866,1.924-1.924,1.924h-3.85c-1.058,0-1.924-0.866-1.924-1.924
	c0-1.059-0.866-1.925-1.925-1.925h-0.745c-0.722,0-1.396,0.409-1.732,1.059l-2.261,4.498c-0.649,1.299-1.973,2.117-3.44,2.117
	h-5.316c-2.117,0-3.849-1.732-3.849-3.849v-6.086c0-1.011,0.409-1.997,1.13-2.719l4.835-4.835c1.107-1.106,1.732-2.622,1.732-4.209
	c0-0.818,0.529-1.563,1.323-1.828l9.621-3.199c0.409-0.145,0.771-0.361,1.059-0.65l6.447-6.446c0.505-0.505,0.794-1.203,0.794-1.925
	c0-1.491-1.228-2.718-2.719-2.718h-4.979l-3.849,3.849v1.924c0,1.059-0.866,1.924-1.925,1.924h-3.849
	c-1.059,0-1.924-0.866-1.924-1.924v-4.811c0-0.602,0.288-1.179,0.77-1.54l6.952-5.22c0.457-0.024,0.914-0.072,1.371-0.072
	C98.698,15.115,120.276,36.692,120.276,63.225z M43.805,37.51c0-0.722,0.289-1.419,0.794-1.924l6.11-6.11
	c0.505-0.505,1.203-0.794,1.924-0.794c1.492,0,2.718,1.227,2.718,2.718v3.849c0,0.722-0.289,1.419-0.794,1.925l-2.261,2.261
	c-0.505,0.505-1.203,0.794-1.925,0.794h-3.849C45.032,40.229,43.805,39.002,43.805,37.51z M74.595,111.214v-1.707
	c0-2.117-1.732-3.85-3.849-3.85h-4.859c-2.598,0-6.423-1.273-8.516-2.838l-5.34-4.018c-2.767-2.068-4.378-5.316-4.378-8.756v-5.748
	c0-3.85,2.021-7.41,5.316-9.383l10.32-6.181c1.708-1.011,3.656-1.563,5.629-1.563h7.505c2.622,0,5.147,0.938,7.12,2.622
	l10.392,8.923h4.402c2.045,0,3.993,0.818,5.437,2.262l4.161,4.162c0.818,0.816,1.948,1.275,3.104,1.275h3.223
	C106.468,100.583,91.698,110.349,74.595,111.214z"/>
</svg>
