<?xml version="1.0" encoding="utf-8"?>
<!-- Generator: Adobe Illustrator 15.1.0, SVG Export Plug-In . SVG Version: 6.00 Build 0)  -->
<!DOCTYPE svg PUBLIC "-//W3C//DTD SVG 1.1//EN" "http://www.w3.org/Graphics/SVG/1.1/DTD/svg11.dtd">
<svg version="1.1" id="Layer_1" xmlns="http://www.w3.org/2000/svg" xmlns:xlink="http://www.w3.org/1999/xlink" x="0px" y="0px"
	 width="147px" height="129.332px" viewBox="0 0 147 129.332" enable-background="new 0 0 147 129.332" xml:space="preserve">
<linearGradient id="SVGID_1_" gradientUnits="userSpaceOnUse" x1="72.667" y1="17.6763" x2="72.667" y2="110.3442">
	<stop  offset="0" style="stop-color:#F55A6A"/>
	<stop  offset="1" style="stop-color:#FE2E6D"/>
</linearGradient>
<path fill="url(#SVGID_1_)" d="M34.057,40.999h77.221v46.334H34.057V40.999z M130.584,64.166c0,6.398,5.185,11.584,11.583,11.584
	v23.166c0,6.398-5.186,11.584-11.583,11.584H14.751c-6.397,0-11.583-5.186-11.583-11.584V75.75c6.397,0,11.583-5.186,11.583-11.584
	c0-6.398-5.186-11.583-11.583-11.583V29.416c0-6.397,5.186-11.583,11.583-11.583h115.833c6.397,0,11.583,5.186,11.583,11.583v23.167
	C135.769,52.583,130.584,57.768,130.584,64.166z M119,39.068c0-3.198-2.593-5.791-5.791-5.791H32.126
	c-3.199,0-5.792,2.593-5.792,5.791v50.196c0,3.198,2.593,5.792,5.792,5.792h81.083c3.198,0,5.791-2.594,5.791-5.792V39.068z"/>
</svg>
