<?xml version="1.0" encoding="utf-8"?>
<!-- Generator: Adobe Illustrator 15.1.0, SVG Export Plug-In . SVG Version: 6.00 Build 0)  -->
<!DOCTYPE svg PUBLIC "-//W3C//DTD SVG 1.1//EN" "http://www.w3.org/Graphics/SVG/1.1/DTD/svg11.dtd">
<svg version="1.1" id="Layer_1" xmlns="http://www.w3.org/2000/svg" xmlns:xlink="http://www.w3.org/1999/xlink" x="0px" y="0px"
	 width="841.889px" height="595.281px" viewBox="0 0 841.889 595.281" enable-background="new 0 0 841.889 595.281"
	 xml:space="preserve">
<path fill="#FFFFFF" d="M702.192,165.214l-53.599,53.599c-5.465,5.464-14.301,5.464-19.766,0L499.773,89.758
	c-5.465-5.465-5.465-14.301,0-19.766l53.599-53.599c21.741-21.741,57.086-21.741,78.944,0l69.876,69.876
	C724.049,108.01,724.049,143.355,702.192,165.214z M453.732,116.033L148.418,421.347L123.77,562.61
	c-3.372,19.067,13.254,35.577,32.322,32.321l141.263-24.765l305.313-305.313c5.464-5.465,5.464-14.301,0-19.766L473.613,116.033
	C468.032,110.569,459.196,110.569,453.732,116.033L453.732,116.033z M267.59,395.187c-6.395-6.395-6.395-16.626,0-23.021
	l179.049-179.05c6.395-6.395,16.626-6.395,23.021,0c6.396,6.395,6.396,16.626,0,23.021l-179.049,179.05
	C284.216,401.582,273.985,401.582,267.59,395.187L267.59,395.187z M225.618,492.967h55.808v42.205l-74.991,13.138l-36.159-36.159
	l13.139-74.991h42.204V492.967z"/>
</svg>
