<?xml version="1.0" encoding="utf-8"?>
<!-- Generator: Adobe Illustrator 15.1.0, SVG Export Plug-In . SVG Version: 6.00 Build 0)  -->
<!DOCTYPE svg PUBLIC "-//W3C//DTD SVG 1.1//EN" "http://www.w3.org/Graphics/SVG/1.1/DTD/svg11.dtd">
<svg version="1.1" id="Layer_1" xmlns="http://www.w3.org/2000/svg" xmlns:xlink="http://www.w3.org/1999/xlink" x="0px" y="0px"
	 width="147px" height="129.332px" viewBox="0 0 147 129.332" enable-background="new 0 0 147 129.332" xml:space="preserve">
<linearGradient id="SVGID_1_" gradientUnits="userSpaceOnUse" x1="73.668" y1="4.2261" x2="73.668" y2="126.6975">
	<stop  offset="0" style="stop-color:#F55A6A"/>
	<stop  offset="1" style="stop-color:#FE2E6D"/>
</linearGradient>
<path fill="url(#SVGID_1_)" d="M136.154,19.222h-24.616V9.754c0-3.148-2.531-5.681-5.681-5.681H41.479
	c-3.148,0-5.681,2.532-5.681,5.681v9.467H11.182c-3.148,0-5.681,2.533-5.681,5.681v13.254c0,8.45,5.326,17.136,14.651,23.834
	c7.456,5.373,16.521,8.781,26.036,9.87c7.432,12.332,16.119,17.421,16.119,17.421v17.043H50.946
	c-8.355,0-15.148,4.898-15.148,13.252v2.842c0,1.561,1.278,2.84,2.84,2.84h70.06c1.562,0,2.84-1.279,2.84-2.84v-2.842
	c0-8.354-6.792-13.252-15.147-13.252H85.029V89.282c0,0,8.687-5.09,16.119-17.421c9.538-1.088,18.604-4.497,26.036-9.87
	c9.302-6.698,14.65-15.384,14.65-23.834V24.902C141.834,21.754,139.301,19.222,136.154,19.222z M29.005,49.707
	c-5.775-4.166-8.355-8.805-8.355-11.55V34.37h15.195c0.237,7.716,1.373,14.485,3.03,20.403
	C35.301,53.542,31.963,51.837,29.005,49.707z M126.687,38.157c0,3.811-4.189,8.544-8.355,11.55c-2.96,2.13-6.32,3.834-9.894,5.065
	c1.656-5.917,2.793-12.687,3.028-20.403h15.221V38.157z"/>
</svg>
